<mxfile host="app.diagrams.net" modified="2022-03-25T12:37:03.272Z" agent="5.0 (Macintosh; Intel Mac OS X 10_15_7) AppleWebKit/537.36 (KHTML, like Gecko) Chrome/99.0.4844.83 Safari/537.36" etag="7EZ1yG9AOiosiaRsHfjg" version="16.0.3" type="github">
  <diagram id="kgpKYQtTHZ0yAKxKKP6v" name="Page-1">
    <mxGraphModel dx="946" dy="614" grid="1" gridSize="10" guides="1" tooltips="1" connect="1" arrows="1" fold="1" page="1" pageScale="1" pageWidth="850" pageHeight="1100" math="0" shadow="0">
      <root>
        <mxCell id="0" />
        <mxCell id="1" parent="0" />
        <mxCell id="NGsbrbn0UQEEl5Se_-rf-5" value="" style="rounded=0;whiteSpace=wrap;html=1;" vertex="1" parent="1">
          <mxGeometry x="180" y="40" width="120" height="60" as="geometry" />
        </mxCell>
        <mxCell id="NGsbrbn0UQEEl5Se_-rf-2" value="" style="shape=curlyBracket;whiteSpace=wrap;html=1;rounded=1;" vertex="1" parent="1">
          <mxGeometry x="140" y="40" width="20" height="80" as="geometry" />
        </mxCell>
        <mxCell id="NGsbrbn0UQEEl5Se_-rf-3" value="" style="rounded=0;whiteSpace=wrap;html=1;" vertex="1" parent="1">
          <mxGeometry x="190" y="50" width="120" height="60" as="geometry" />
        </mxCell>
        <mxCell id="NGsbrbn0UQEEl5Se_-rf-1" value="Image&lt;br&gt;28 x 28 x 1" style="rounded=0;whiteSpace=wrap;html=1;" vertex="1" parent="1">
          <mxGeometry x="200" y="60" width="120" height="60" as="geometry" />
        </mxCell>
        <mxCell id="NGsbrbn0UQEEl5Se_-rf-4" value="&lt;b&gt;Support&lt;/b&gt;&lt;br&gt;Positive Class" style="text;html=1;strokeColor=none;fillColor=none;align=center;verticalAlign=middle;whiteSpace=wrap;rounded=0;" vertex="1" parent="1">
          <mxGeometry x="40" y="65" width="100" height="30" as="geometry" />
        </mxCell>
        <mxCell id="NGsbrbn0UQEEl5Se_-rf-6" value="" style="endArrow=classic;html=1;rounded=0;" edge="1" parent="1">
          <mxGeometry width="50" height="50" relative="1" as="geometry">
            <mxPoint x="330" y="80" as="sourcePoint" />
            <mxPoint x="370" y="80" as="targetPoint" />
          </mxGeometry>
        </mxCell>
        <mxCell id="NGsbrbn0UQEEl5Se_-rf-8" value="" style="rounded=0;whiteSpace=wrap;html=1;" vertex="1" parent="1">
          <mxGeometry x="380" y="40" width="120" height="60" as="geometry" />
        </mxCell>
        <mxCell id="NGsbrbn0UQEEl5Se_-rf-9" value="" style="rounded=0;whiteSpace=wrap;html=1;" vertex="1" parent="1">
          <mxGeometry x="390" y="50" width="120" height="60" as="geometry" />
        </mxCell>
        <mxCell id="NGsbrbn0UQEEl5Se_-rf-7" value="Features&lt;br&gt;1 x 1 x 64" style="rounded=0;whiteSpace=wrap;html=1;" vertex="1" parent="1">
          <mxGeometry x="400" y="60" width="120" height="60" as="geometry" />
        </mxCell>
        <mxCell id="NGsbrbn0UQEEl5Se_-rf-12" value="Prototype&lt;br&gt;1 x 1 x 64" style="rounded=0;whiteSpace=wrap;html=1;" vertex="1" parent="1">
          <mxGeometry x="580" y="50" width="120" height="60" as="geometry" />
        </mxCell>
        <mxCell id="NGsbrbn0UQEEl5Se_-rf-13" value="" style="endArrow=classic;html=1;rounded=0;" edge="1" parent="1">
          <mxGeometry width="50" height="50" relative="1" as="geometry">
            <mxPoint x="530" y="80" as="sourcePoint" />
            <mxPoint x="570" y="80" as="targetPoint" />
          </mxGeometry>
        </mxCell>
        <mxCell id="NGsbrbn0UQEEl5Se_-rf-14" value="" style="rounded=0;whiteSpace=wrap;html=1;" vertex="1" parent="1">
          <mxGeometry x="180" y="180" width="120" height="60" as="geometry" />
        </mxCell>
        <mxCell id="NGsbrbn0UQEEl5Se_-rf-15" value="" style="shape=curlyBracket;whiteSpace=wrap;html=1;rounded=1;" vertex="1" parent="1">
          <mxGeometry x="140" y="180" width="20" height="180" as="geometry" />
        </mxCell>
        <mxCell id="NGsbrbn0UQEEl5Se_-rf-16" value="" style="rounded=0;whiteSpace=wrap;html=1;" vertex="1" parent="1">
          <mxGeometry x="190" y="190" width="120" height="60" as="geometry" />
        </mxCell>
        <mxCell id="NGsbrbn0UQEEl5Se_-rf-17" value="Image&lt;br&gt;28 x 28 x 1" style="rounded=0;whiteSpace=wrap;html=1;" vertex="1" parent="1">
          <mxGeometry x="200" y="200" width="120" height="60" as="geometry" />
        </mxCell>
        <mxCell id="NGsbrbn0UQEEl5Se_-rf-18" value="&lt;b&gt;Query&lt;/b&gt;&lt;br&gt;Positive Class&lt;br&gt;Negative Class" style="text;html=1;strokeColor=none;fillColor=none;align=center;verticalAlign=middle;whiteSpace=wrap;rounded=0;" vertex="1" parent="1">
          <mxGeometry x="40" y="240" width="100" height="60" as="geometry" />
        </mxCell>
        <mxCell id="NGsbrbn0UQEEl5Se_-rf-19" value="" style="endArrow=classic;html=1;rounded=0;" edge="1" parent="1">
          <mxGeometry width="50" height="50" relative="1" as="geometry">
            <mxPoint x="330" y="220" as="sourcePoint" />
            <mxPoint x="370" y="220" as="targetPoint" />
          </mxGeometry>
        </mxCell>
        <mxCell id="NGsbrbn0UQEEl5Se_-rf-20" value="" style="rounded=0;whiteSpace=wrap;html=1;" vertex="1" parent="1">
          <mxGeometry x="380" y="180" width="120" height="60" as="geometry" />
        </mxCell>
        <mxCell id="NGsbrbn0UQEEl5Se_-rf-21" value="" style="rounded=0;whiteSpace=wrap;html=1;" vertex="1" parent="1">
          <mxGeometry x="390" y="190" width="120" height="60" as="geometry" />
        </mxCell>
        <mxCell id="NGsbrbn0UQEEl5Se_-rf-22" value="Features&lt;br&gt;1 x 1 x 64" style="rounded=0;whiteSpace=wrap;html=1;" vertex="1" parent="1">
          <mxGeometry x="400" y="200" width="120" height="60" as="geometry" />
        </mxCell>
        <mxCell id="NGsbrbn0UQEEl5Se_-rf-25" value="" style="rounded=0;whiteSpace=wrap;html=1;" vertex="1" parent="1">
          <mxGeometry x="180" y="280" width="120" height="60" as="geometry" />
        </mxCell>
        <mxCell id="NGsbrbn0UQEEl5Se_-rf-26" value="" style="rounded=0;whiteSpace=wrap;html=1;" vertex="1" parent="1">
          <mxGeometry x="190" y="290" width="120" height="60" as="geometry" />
        </mxCell>
        <mxCell id="NGsbrbn0UQEEl5Se_-rf-27" value="Image&lt;br&gt;28 x 28 x 1" style="rounded=0;whiteSpace=wrap;html=1;" vertex="1" parent="1">
          <mxGeometry x="200" y="300" width="120" height="60" as="geometry" />
        </mxCell>
        <mxCell id="NGsbrbn0UQEEl5Se_-rf-28" value="" style="endArrow=classic;html=1;rounded=0;" edge="1" parent="1">
          <mxGeometry width="50" height="50" relative="1" as="geometry">
            <mxPoint x="330" y="320" as="sourcePoint" />
            <mxPoint x="370" y="320" as="targetPoint" />
          </mxGeometry>
        </mxCell>
        <mxCell id="NGsbrbn0UQEEl5Se_-rf-29" value="" style="rounded=0;whiteSpace=wrap;html=1;" vertex="1" parent="1">
          <mxGeometry x="380" y="280" width="120" height="60" as="geometry" />
        </mxCell>
        <mxCell id="NGsbrbn0UQEEl5Se_-rf-30" value="" style="rounded=0;whiteSpace=wrap;html=1;" vertex="1" parent="1">
          <mxGeometry x="390" y="290" width="120" height="60" as="geometry" />
        </mxCell>
        <mxCell id="NGsbrbn0UQEEl5Se_-rf-31" value="Features&lt;br&gt;1 x 1 x 64" style="rounded=0;whiteSpace=wrap;html=1;" vertex="1" parent="1">
          <mxGeometry x="400" y="300" width="120" height="60" as="geometry" />
        </mxCell>
        <mxCell id="NGsbrbn0UQEEl5Se_-rf-44" value="Distance To&lt;br&gt;Prototype" style="rounded=0;whiteSpace=wrap;html=1;" vertex="1" parent="1">
          <mxGeometry x="200" y="440" width="120" height="60" as="geometry" />
        </mxCell>
        <mxCell id="NGsbrbn0UQEEl5Se_-rf-45" value="Distance To&lt;br&gt;Zero" style="rounded=0;whiteSpace=wrap;html=1;" vertex="1" parent="1">
          <mxGeometry x="200" y="520" width="120" height="60" as="geometry" />
        </mxCell>
        <mxCell id="NGsbrbn0UQEEl5Se_-rf-46" value="" style="shape=curlyBracket;whiteSpace=wrap;html=1;rounded=1;flipH=1;" vertex="1" parent="1">
          <mxGeometry x="340" y="440" width="20" height="140" as="geometry" />
        </mxCell>
        <mxCell id="NGsbrbn0UQEEl5Se_-rf-47" value="Log(Softmax(x))" style="text;html=1;strokeColor=none;fillColor=none;align=center;verticalAlign=middle;whiteSpace=wrap;rounded=0;" vertex="1" parent="1">
          <mxGeometry x="360" y="495" width="120" height="30" as="geometry" />
        </mxCell>
      </root>
    </mxGraphModel>
  </diagram>
</mxfile>
